<svg viewBox="0 0 100 100" xmlns="http://www.w3.org/2000/svg" xmlns:xlink="http://www.w3.org/1999/xlink" width="100.000000" height="100.000000" fill="none">
	<rect id="github-logo_25231 1" width="100.000000" height="100.000000" x="0.000000" y="0.000000" fill="rgb(255,255,255)" fill-opacity="0" />
	<g id="Group">
		<path id="Vector" d="M93.2922 26.1255C88.8211 18.4648 82.7563 12.3998 75.0963 7.92911C67.4351 3.45823 59.0714 1.22336 49.9992 1.22336C40.9282 1.22336 32.5617 3.45891 24.9021 7.92911C17.2414 12.3995 11.1769 18.4648 6.70575 26.1255C2.23533 33.786 0 42.1513 0 51.2212C0 62.1162 3.17866 71.9133 9.53759 80.6149C15.8958 89.3173 24.1097 95.339 34.1786 98.6807C35.3507 98.8982 36.2183 98.7452 36.7824 98.2255C37.3468 97.7052 37.6286 97.0535 37.6286 96.2732C37.6286 96.143 37.6175 94.9716 37.5958 92.7577C37.5735 90.5438 37.563 88.6124 37.563 86.9645L36.0655 87.2236C35.1108 87.3985 33.9064 87.4726 32.4522 87.4516C30.9988 87.4313 29.49 87.279 27.9278 86.9958C26.3649 86.7151 24.9112 86.064 23.5657 85.0441C22.2208 84.0241 21.266 82.6891 20.7017 81.0409L20.0507 79.5428C19.6167 78.5454 18.9336 77.4374 18.0003 76.223C17.067 75.0074 16.1232 74.1833 15.1684 73.7494L14.7126 73.423C14.4089 73.2062 14.127 72.9446 13.8664 72.6411C13.606 72.3376 13.411 72.0339 13.2808 71.7297C13.1504 71.4253 13.2585 71.1756 13.6062 70.9798C13.954 70.7839 14.5824 70.6888 15.4943 70.6888L16.7958 70.8833C17.6639 71.0573 18.7377 71.577 20.0185 72.4455C21.2986 73.3134 22.351 74.4416 23.1757 75.8298C24.1745 77.6098 25.3778 78.9661 26.789 79.8994C28.1991 80.8327 29.6209 81.2986 31.0529 81.2986C32.4849 81.2986 33.7217 81.19 34.7637 80.9741C35.8047 80.757 36.7813 80.4307 37.6932 79.997C38.0838 77.0879 39.1473 74.853 40.8828 73.2908C38.4092 73.0308 36.1852 72.6393 34.2099 72.1187C32.2356 71.5975 30.1955 70.7515 28.0908 69.5785C25.985 68.4072 24.2381 66.9526 22.8497 65.2174C21.461 63.4812 20.3213 61.2018 19.4323 58.3814C18.5427 55.5598 18.0979 52.305 18.0979 48.616C18.0979 43.3635 19.8126 38.8937 23.2414 35.2043C21.6352 31.2553 21.7868 26.8285 23.6968 21.9241C24.9555 21.5331 26.8221 21.8265 29.2957 22.8027C31.7698 23.7793 33.5812 24.616 34.7318 25.3096C35.8824 26.003 36.8043 26.5907 37.4989 27.0672C41.5361 25.9392 45.7023 25.375 49.9987 25.375C54.2952 25.375 58.4623 25.9392 62.4997 27.0672L64.9736 25.5055C66.6653 24.4634 68.663 23.5084 70.962 22.6404C73.2623 21.7727 75.0213 21.5337 76.2371 21.9248C78.1894 26.8294 78.3634 31.256 76.7568 35.205C80.1853 38.8944 81.9008 43.3653 81.9008 48.6167C81.9008 52.3057 81.4543 55.5708 80.5661 58.414C79.6768 61.2577 78.5274 63.5348 77.1173 65.25C75.7056 66.9649 73.9475 68.4081 71.8428 69.5792C69.7377 70.7513 67.6969 71.5973 65.7226 72.1185C63.7475 72.6398 61.5236 73.0315 59.05 73.2919C61.306 75.2443 62.4343 78.326 62.4343 82.5358L62.4343 96.2713C62.4343 97.0517 62.7057 97.7031 63.2488 98.2237C63.7913 98.7434 64.648 98.8964 65.82 98.6786C75.8903 95.3374 84.1042 89.3155 90.4622 80.6131C96.8195 71.9115 99.9993 62.1144 99.9993 51.2194C99.997 42.1506 97.7606 33.786 93.2922 26.1255Z" fill="rgb(31,41,55)" fill-rule="nonzero" />
	</g>
</svg>
